<?xml version="1.0" encoding="UTF-8"?>
<svg xmlns="http://www.w3.org/2000/svg" xmlns:xlink="http://www.w3.org/1999/xlink" viewBox="0 0 512 512" width="512px" height="512px">
<g id="surface8221390">
<path style=" stroke:none;fill-rule:nonzero;fill:rgb(14.901961%,87.843138%,49.803922%);fill-opacity:1;" d="M 256 32 C 139.4375 32 70.375 83.1875 70.375 83.1875 L 64 88 L 64 272 C 64 337.3125 112.5625 388.5 158.25 423.5 C 204 458.5625 249.5 478.625 249.5 478.625 L 255.4375 481.25 L 261.5 479 C 261.5 479 307.375 462.4375 353.4375 428.9375 C 399.4375 395.4375 448 343.3125 448 272 L 448 88 L 441.5625 83.1875 C 441.5625 83.1875 372.5625 32 256 32 Z M 256 64 C 355.4375 64 407.9375 99.75 416 105.5 L 416 272 C 416 328.6875 376.5625 372.5625 334.5625 403.0625 C 309.375 421.375 286.875 432.875 272 439.6875 L 272 384 L 240 384 L 240 438 C 225 430.125 202.6875 417.25 177.75 398.125 C 135.4375 365.75 96 320.875 96 272 L 96 105.5 C 104.0625 99.75 156.5625 64 256 64 Z M 176 112 C 154.6875 112 128 128 112 160 C 132.8125 145.5 150.5 133.3125 165.3125 133.3125 C 194 133.3125 208.3125 166.9375 212.6875 171.3125 C 218.9375 177.5625 229.0625 177.5625 235.3125 171.3125 C 241.5625 165.0625 241.5625 154.9375 235.3125 148.6875 C 231.4375 144.8125 212.6875 112 176 112 Z M 336 112 C 299.3125 112 280.5625 144.8125 276.6875 148.6875 C 270.4375 154.9375 270.4375 165.0625 276.6875 171.3125 C 282.9375 177.5625 293.0625 177.5625 299.3125 171.3125 C 303.6875 166.9375 323.375 128 352 128 C 366.8125 128 384 144 400 160 C 384 112 357.3125 112 336 112 Z M 168 176 C 151.625 176 137.1875 182.3125 128 192 C 137.1875 201.6875 151.625 208 168 208 C 184.375 208 198.8125 201.6875 208 192 C 198.8125 182.3125 184.375 176 168 176 Z M 344 176 C 327.625 176 313.1875 182.3125 304 192 C 313.1875 201.6875 327.625 208 344 208 C 360.375 208 374.8125 201.6875 384 192 C 374.8125 182.3125 360.375 176 344 176 Z M 128 272 L 176 352 L 240 352 L 256 336 L 272 352 L 336 352 L 384 272 L 320 320 L 304 320 L 272 288 L 240 288 L 208 320 L 192 320 Z M 128 272 "/>
</g>
</svg>
