<?xml version="1.0" encoding="UTF-8"?>
<svg xmlns="http://www.w3.org/2000/svg" xmlns:xlink="http://www.w3.org/1999/xlink" viewBox="0 0 512 512" width="512px" height="512px">
<g id="surface8227703">
<path style=" stroke:none;fill-rule:nonzero;fill:rgb(14.901961%,87.843138%,49.803922%);fill-opacity:1;" d="M 129 80 L 127 112 C 127 112 147.75 113.375 171.5 118 C 179 119.4375 186.6875 121.75 194 124 C 191.9375 125.25 190.375 126.6875 188.5 128 L 56 128 L 65.5 150 C 65.5 150 73.75 169.8125 93.5 188 C 102.375 196.1875 113.9375 204.0625 128 210.5 C 127.5 217.0625 124.75 221.125 120.5 225 C 115.6875 229.375 108 233.0625 99.5 235.5 C 82.4375 240.375 64.5 240 64.5 240 L 63.5 272 C 63.5 272 85.5625 272.625 108.5 266 C 120 262.6875 132.3125 257.8125 142.5 248.5 C 150.0625 241.625 155.9375 231.875 158.5 220.5 C 168.8125 222.625 179.75 224 192 224 L 192 192 C 153.5 192 130 177.8125 115 164 C 112.75 161.9375 113.8125 162 112 160 L 198.5 160 L 203 155.5 C 203 155.5 204.375 154.25 212.5 151 C 220.625 147.75 234.3125 144 256 144 C 295.75 144 325 171.5 325 171.5 L 328.5 175 L 333.5 176 L 425.5 189 L 411.5 225 C 409 231.3125 401.9375 234.125 395.5 232 C 365.6875 222.0625 319.8125 208 288 208 C 269.0625 208 254.3125 217.5625 247.5 228.5 C 240.6875 239.4375 240 250 240 256 C 240 273.3125 251.125 284.6875 263 295 C 274.875 305.3125 289.4375 314.3125 304 322.5 C 323.3125 333.375 331.8125 336.8125 342.5 341.5 C 339.5625 343.125 337 346.1875 333.5 345 L 261 321 L 240 314 L 240 336 C 240 359.0625 240.8125 380.6875 249.5 399.5 C 258.1875 418.3125 278.125 432 304 432 L 304 400 C 286.8125 400 283.0625 395.9375 278.5 386 C 276 380.625 276 368.5 275 359 L 323.5 375.5 C 344.5 382.5 367.625 372.75 377.5 353 L 382.5 343 L 390 327.5 L 376 322 C 378.375 315.375 380.6875 303.75 376.5 288 C 366.875 300.8125 352.5 310.5 352.5 310.5 C 352.5 310.5 352.6875 310.875 352.5 311.5 C 351.1875 310.875 349.875 310.125 348.5 309.5 C 350.875 302.6875 353.125 292.8125 351.5 280 C 344.375 287.125 336.625 292.1875 331 295.5 C 332.5625 289.1875 333.6875 281.75 332.5 272 C 324 280.5 314.4375 285.8125 309.5 288.5 C 307.1875 287.0625 304.6875 286 302.5 284.5 C 303.5625 278.6875 304.5 272.1875 303.5 264 C 299.125 268.375 294.125 271.875 289.5 275 C 287.6875 273.5625 285.5625 271.875 284 270.5 C 274.875 262.625 272 255.6875 272 256 C 272 254 272.625 248.5625 274.5 245.5 C 276.375 242.4375 277.9375 240 288 240 C 299.0625 240 317.6875 243.6875 337 248.5 C 336.5625 252.4375 336.8125 249.375 336 256 C 339.75 255 343.4375 253.125 347 251 C 349 251.5625 351 251.9375 353 252.5 C 352.9375 257 352.6875 261.875 352 267.5 C 357.375 266 362.5 261.875 367 257 C 367.6875 257.1875 368.3125 257.3125 369 257.5 C 368.9375 261.9375 368.6875 266.5625 368 272 C 373.25 270.5625 378.125 266.1875 382.5 261.5 C 383.125 261.6875 383.875 262.3125 384.5 262.5 C 384.75 268.375 385.0625 275.0625 384 283.5 C 392.6875 281.125 400.75 272.5 406.5 264 C 406.5625 263.875 406.4375 263.625 406.5 263.5 C 421.5625 261 435.0625 251.4375 441 236.5 L 463 182 L 470.5 163 L 450.5 160 L 341.5 144.5 C 334.4375 138.125 304.25 112 256 112 C 252.5625 112 249.6875 112.375 246.5 112.5 C 227.8125 97.125 201.25 91.125 177.5 86.5 C 151.625 81.5 129 80 129 80 Z M 240 160 L 256 192 L 304 160 Z M 134 275.5 C 130.125 278.625 111 284.125 94.5 286 C 78 287.875 64 288 64 288 L 64 320 C 64 320 80 320.125 98.5 318 C 117 315.875 137.875 313.375 154 300.5 Z M 136.5 322 C 127.3125 326.9375 107.9375 331.375 92 333.5 C 76.0625 335.625 63.5 336 63.5 336 L 64.5 368 C 64.5 368 78.9375 367.375 96.5 365 C 114.0625 362.625 134.6875 359.0625 151.5 350 Z M 136.5 370 C 127.3125 374.9375 107.9375 379.375 92 381.5 C 76.0625 383.625 63.5 384 63.5 384 L 64.5 416 C 64.5 416 78.9375 415.375 96.5 413 C 114.0625 410.625 134.6875 407.0625 151.5 398 Z M 136.5 370 "/>
</g>
</svg>
