<?xml version="1.0" encoding="UTF-8"?>
<svg xmlns="http://www.w3.org/2000/svg" xmlns:xlink="http://www.w3.org/1999/xlink" viewBox="0 0 512 512" width="512px" height="512px">
<g id="surface8225947">
<path style=" stroke:none;fill-rule:nonzero;fill:rgb(14.901961%,87.843138%,49.803922%);fill-opacity:1;" d="M 255.5 48 C 253.875 47.9375 185.5 46.0625 131 90 L 129 91 L 128 93 C 116.5625 108.25 113.125 128.375 110 148.5 C 107.5625 164.0625 106.9375 175.6875 106.5 186 C 105.4375 186.8125 103.4375 186.5625 102.5 187.5 C 98.8125 191.1875 96 196.0625 96 203 L 96 204 L 99 280 C 99 280.1875 99 280.3125 99 280.5 C 99.125 287.125 102.375 291.875 106 295.5 C 107.5625 297.0625 110.4375 297.375 112.5 298.5 C 113.625 303.6875 115.9375 315.25 120.5 333.5 C 123.25 344.4375 126.625 355.8125 129.5 365.5 C 132.25 374.75 133.875 381.5625 138 388.5 C 138.125 388.75 138.375 389.25 138.5 389.5 C 150 410.3125 173.4375 440.4375 200 455 L 200 455.5 C 200.125 455.5625 200.375 455.4375 200.5 455.5 C 210.3125 461.25 218.375 461.375 228 462 C 237.8125 462.625 248 462.5 256 462.5 C 265.3125 462.5 275.5625 461.875 285 461 C 294.4375 460.125 302.0625 459.6875 310 456.5 L 310.5 456 L 311 456 C 339.8125 441.5625 362.3125 409.8125 373.5 389.5 C 373.5625 389.375 373.4375 389.125 373.5 389 C 373.625 388.8125 373.875 388.6875 374 388.5 C 378.125 381.5625 379.75 374.75 382.5 365.5 C 385.375 355.8125 388.75 344.4375 391.5 333.5 C 396.0625 315.25 398.375 303.6875 399.5 298.5 C 401.5625 297.375 404.4375 297.0625 406 295.5 C 409.625 291.875 412.875 287.125 413 280.5 C 413 280.3125 413 280.1875 413 280 L 416 204 L 416 203 C 416 196.0625 413.1875 191.1875 409.5 187.5 C 408.5625 186.5625 406.5625 186.8125 405.5 186 C 404.75 176.75 403.875 164.625 401.5 148.5 C 398.5625 128.5 395.625 108.4375 384 93 L 383 91 L 381 90 C 326.5 46.0625 258.125 47.9375 256.5 48 Z M 255.5 80 L 256.5 80 C 256.5 80 315.125 79.9375 359 114 C 361.9375 118.9375 367.4375 135.5 370 153 C 372.6875 171.375 373.625 189.625 374.5 198.5 L 376 213 L 383.5 213 L 381.5 270.5 L 369.5 270.5 L 369.5 286.5 C 369.125 288.3125 365.5625 305.1875 360.5 325.5 C 357.8125 336.1875 354.6875 347.625 352 356.5 C 349.3125 365.375 345.9375 373.4375 346.5 372.5 L 346 372.5 L 346 373 C 338 387.625 313.625 418 298 426.5 C 297.9375 426.5 290.1875 428.75 282 429.5 C 273.8125 430.25 264.3125 430.5 256 430.5 C 248 430.5 238.1875 430.5625 230 430 C 221.8125 429.4375 213.9375 426.75 216 428 L 216 427.5 L 215.5 427.5 C 209.625 424.3125 201.9375 416.4375 194 408 C 182.4375 395.6875 170.625 381.4375 166 373 L 166 372.5 L 165.5 372.5 C 166.0625 373.4375 162.6875 365.375 160 356.5 C 157.3125 347.625 154.1875 336.1875 151.5 325.5 C 146.4375 305.1875 142.875 288.3125 142.5 286.5 L 142.5 270.5 L 130.5 270.5 L 128.5 213 L 137.5 213 L 137.5 197 C 137.5 190.625 138.625 171.75 141.5 153.5 C 144.1875 136.125 149.875 119.125 153 114 C 196.875 79.9375 255.5 80 255.5 80 Z M 194 408 L 212 408 L 228 400 L 284 400 L 300 408 L 318 408 L 321 396 L 334.5 343 L 358.5 295 L 359.5 292 L 369 254 L 352 220 L 352 134 L 343 129.5 L 298.5 107.5 L 280 98 L 275.5 118 L 262.5 176 L 249.5 176 L 236.5 118 L 232 98 L 213.5 107.5 L 169 129.5 L 160 134 L 160 220 L 143 254 L 152.5 292 L 153.5 295 L 177.5 343 L 191 396 Z M 209.5 145 L 221 195.5 L 224 208 L 288 208 L 291 195.5 L 302.5 145 L 320 154 L 320 228 L 334 256 L 272 256 L 272 288 L 326 288 L 305.5 329 L 304.5 332 L 295 369.5 L 292 368 L 220 368 L 217 369.5 L 207.5 332 L 206.5 329 L 186 288 L 240 288 L 240 256 L 178 256 L 192 228 L 192 154 Z M 209.5 145 "/>
</g>
</svg>
