<svg xmlns="http://www.w3.org/2000/svg" viewBox="0 0 2800 2800" width="2800" height="2800">
	<style>
		tspan { white-space:pre }
		.shp0 { fill: #a1c658 } 
		.shp1 { fill: #303e5c } 
		.shp2 { fill: #ffffff } 
		.shp3 { fill: #e2de4b } 
		.shp4 { fill: #f7315c } 
		.shp5 { fill: #ffce6c } 
		.shp6 { fill: #e2de4b;stroke: #303e5c;stroke-width: 6 } 
	</style>
	<g id="画板">
		<g id="39备份">
			<g id="编组">
				<path id="路径" class="shp0" d="M494.2 1338.7C531 1383.3 579.1 1417.4 631 1442.5C700.5 1476.1 781.1 1470.3 855.8 1478.8C896.4 1483.4 1185.3 1489.4 1230.6 1483.2C1220.7 1527.2 1042.7 2522 978.6 2724C970.6 2749.3 962.6 2774.6 954.6 2800L2153.6 2800C2143.5 2652.2 2065.6 1941.8 2057.2 1880.5C2048.7 1818.1 1935.3 980.9 1919.2 881C1873.2 596.2 1783.2 548.2 1572.8 514.8C1526.1 507.4 1478.8 501.4 1431.7 497.3C1383.5 493.1 1335.2 490.7 1286.9 489.6C1190.2 487.4 1093.4 490.9 996.9 497.8C932 502.5 519.3 504.2 416 895C406.2 932.2 405.7 971.3 404.5 1009.7C402.6 1072.3 405.8 1135.4 422 1196.2C435.9 1248.2 459.9 1297.1 494.2 1338.7Z" />
				<path id="路径" class="shp1" d="M1169.4 1809.3C1160.1 1859 1150.1 1912 1139.7 1966.6C1144 1975.7 1228.4 2105.8 1256.2 2136.9C1270.9 2153.3 1286.3 2169.2 1301.9 2184.7C1308 2190.8 1320.3 2198.8 1323.7 2206.9C1325.8 2211.9 1325.3 2219.5 1326.2 2224.9C1332 2259.9 1363.7 2282.1 1397.6 2280.3C1412.7 2279.5 1427.6 2274.7 1438.6 2264C1441.9 2260.8 1444 2257.2 1445.3 2253.3C1462.8 2260 1483.5 2256.5 1500.9 2242.4C1521.5 2225.6 1514.6 2200.1 1501.6 2180C1514.2 2173.9 1523.5 2163.5 1525 2146.9C1527.7 2116.5 1488.5 2106.4 1466 2106.7C1445.7 2106.9 1425.8 2109.4 1405.8 2104.7C1386.1 2100.1 1367 2084.1 1351.8 2071.6C1320 2045.5 1176.5 1822.1 1169.4 1809.3Z" />
				<path id="路径" class="shp1" d="M1740.8 2180C1727.8 2200.1 1720.9 2225.6 1741.5 2242.4C1758.9 2256.6 1779.6 2260 1797.1 2253.3C1798.4 2257.2 1800.6 2260.8 1803.8 2264C1814.7 2274.7 1829.6 2279.5 1844.8 2280.3C1878.8 2282.1 1910.5 2259.9 1916.2 2224.9C1917.1 2219.5 1916.6 2212 1918.7 2206.9C1922 2198.7 1934.3 2190.8 1940.5 2184.7C1956.1 2169.1 1971.5 2153.3 1986.2 2136.9C2003.9 2117.1 2044.4 2057.4 2072.7 2014.2C2064.9 1944.5 2059.2 1894.8 2057.2 1880.5C2056.4 1874.5 2054.6 1861.4 2052 1842.6C2009.4 1908.9 1915.6 2051.1 1890.7 2071.7C1875.5 2084.2 1856.3 2100.3 1836.7 2104.8C1816.7 2109.5 1796.7 2107 1776.5 2106.8C1754 2106.5 1714.8 2116.6 1717.5 2147C1718.9 2163.5 1728.2 2173.9 1740.8 2180Z" />
				<g id="椭圆形">
					<path id="Layer" class="shp2" d="M1031.6 868.8C972.76 868.8 925.2 818.15 925.2 755.5C925.2 692.85 972.76 642.2 1031.6 642.2C1090.44 642.2 1138 692.85 1138 755.5C1138 818.15 1090.44 868.8 1031.6 868.8Z" />
					<path id="Layer" class="shp1" d="M1055.7 859.2C1012.9 859.2 978.3 822.37 978.3 776.8C978.3 731.23 1012.9 694.4 1055.7 694.4C1098.5 694.4 1133.1 731.23 1133.1 776.8C1133.1 822.37 1098.5 859.2 1055.7 859.2Z" />
				</g>
				<g id="椭圆形">
					<path id="Layer" class="shp2" d="M1389.7 868.8C1330.86 868.8 1283.3 818.15 1283.3 755.5C1283.3 692.85 1330.86 642.2 1389.7 642.2C1448.54 642.2 1496.1 692.85 1496.1 755.5C1496.1 818.15 1448.54 868.8 1389.7 868.8Z" />
					<path id="Layer" class="shp1" d="M1413.8 859.2C1371 859.2 1336.4 822.37 1336.4 776.8C1336.4 731.23 1371 694.4 1413.8 694.4C1456.6 694.4 1491.2 731.23 1491.2 776.8C1491.2 822.37 1456.6 859.2 1413.8 859.2Z" />
				</g>
				<g id="Layer">
					<path id="椭圆形" class="shp1" d="M537.2 1100.3C517.29 1100.3 501.2 1080.23 501.2 1055.4C501.2 1030.57 517.29 1010.5 537.2 1010.5C557.11 1010.5 573.2 1030.57 573.2 1055.4C573.2 1080.23 557.11 1100.3 537.2 1100.3Z" />
					<path id="路径" class="shp1" d="M579.5 994.2C568.6 982.3 553.2 977.8 537.6 976.8C522.9 975.8 507.9 980.5 496.4 989.7C486.9 997.4 478.2 1012.1 480.4 1024.6C481.3 1029.4 487.1 1032.1 491.5 1030.9C496.6 1029.5 498.6 1024.7 497.8 1019.8C497.9 1020.7 498 1020.6 498 1019.6C498.1 1020.1 498.8 1017.1 498.7 1017.4C499.3 1015.6 500.2 1013.9 501.2 1012.3C503.3 1008.5 506 1005.4 509.3 1002.5C516.7 996 528.3 994.5 537.7 994.9C547.4 995.3 557.4 998.1 564.7 1004.8C570.2 1009.9 579.1 1019.6 576.7 1027.7C573.4 1038.9 590.8 1043.6 594.1 1032.5C598.2 1017.9 588.8 1004.4 579.5 994.2Z" />
				</g>
				<g id="Layer">
					<path id="椭圆形" class="shp1" d="M736.8 1100.3C716.89 1100.3 700.8 1080.23 700.8 1055.4C700.8 1030.57 716.89 1010.5 736.8 1010.5C756.71 1010.5 772.8 1030.57 772.8 1055.4C772.8 1080.23 756.71 1100.3 736.8 1100.3Z" />
					<path id="路径" class="shp1" d="M779.1 994.2C768.2 982.3 752.8 977.8 737.2 976.8C722.5 975.8 707.5 980.5 696 989.7C686.5 997.4 677.8 1012.1 680 1024.6C680.9 1029.4 686.7 1032.1 691.1 1030.9C696.2 1029.5 698.2 1024.7 697.4 1019.8C697.5 1020.7 697.6 1020.6 697.6 1019.6C697.7 1020.1 698.4 1017.1 698.3 1017.4C698.9 1015.6 699.8 1013.9 700.8 1012.3C702.9 1008.5 705.6 1005.4 708.9 1002.5C716.3 996 727.9 994.5 737.3 994.9C747 995.3 757 998.1 764.3 1004.8C769.8 1009.9 778.7 1019.6 776.3 1027.7C773 1038.9 790.4 1043.6 793.7 1032.5C797.8 1017.9 788.4 1004.4 779.1 994.2Z" />
				</g>
				<path id="路径" class="shp1" d="M902.5 1349.3C951.9 1349.6 1001.3 1351.2 1050.7 1351.1C1103.8 1351 1157 1349 1209.6 1342.1C1260.1 1335.5 1310 1324.3 1356.7 1303.5C1367.9 1298.5 1378.8 1292.8 1389.4 1286.5C1394.6 1301.2 1398.6 1316.4 1400.2 1332.2C1400.7 1337.1 1403.9 1341.2 1409.2 1341.2C1413.7 1341.2 1418.7 1337.1 1418.2 1332.2C1416.2 1312.8 1411.3 1294.5 1404.7 1276.7C1405 1276.5 1405.4 1276.2 1405.8 1276C1414.9 1269.7 1407 1255.2 1398 1259.7C1392.8 1247.6 1387 1235.6 1381.1 1223.7C1375.9 1213.3 1360.4 1222.4 1365.6 1232.8C1371.7 1244.9 1377.6 1257.1 1382.9 1269.5C1346.5 1291.7 1305.6 1305.4 1264 1314.6C1212.9 1325.9 1160.4 1330.2 1108.1 1332.1C1056.5 1333.9 1004.8 1332.9 953.2 1332C896.5 1331 839.9 1331.5 783.3 1329.3C673.3 1325.1 563.6 1311.9 457.2 1283.8C461.3 1291.2 465.6 1298.4 470.2 1305.5C550.1 1325.3 631.8 1337.4 714.1 1343.4C776.7 1348.1 839.5 1348.9 902.5 1349.3Z" />
				<g id="路径">
					<g id="Layer">
						<path id="Layer" class="shp3" d="M2326 2774.6C2312.4 2767.6 2298.3 2762.5 2284.3 2756.7C2270.6 2751 2257.3 2744.1 2244 2737.4C2233.8 2732.2 2223.6 2727.1 2213.1 2722.4C2202 2717.4 2190.6 2713.7 2179.2 2709.5C2176.3 2708.4 2173.4 2707.3 2170.5 2706.2C2168 2704.9 2165.5 2703.6 2163 2702.2C2157.1 2699 2150.8 2695.6 2144.3 2692.7C2148.7 2739.3 2152 2776.7 2153.6 2800L2369.2 2800C2368.3 2799.4 2367.4 2798.9 2366.5 2798.3C2353.4 2789.8 2339.9 2781.7 2326 2774.6Z" />
						<path id="Layer" class="shp3" d="M2057.2 1880.5C2057.6 1883.6 2058.2 1888.5 2059 1894.9C2097.6 1870.6 2137.5 1848.3 2175.1 1822.3C2210.8 1797.6 2245.4 1770.4 2272.3 1736C2293.4 1709 2312.2 1671.7 2293.9 1639.9C2289.6 1627.3 2281.4 1616.2 2270.7 1607.6C2259.4 1598.5 2246.3 1591.8 2233.7 1584.9C2220 1577.3 2206 1570.3 2191.6 1564.1C2177.6 1558.1 2163.2 1554 2148.7 1549.2C2134.6 1544.5 2120.9 1538.6 2107.2 1532.8C2096.7 1528.3 2086.1 1524 2075.3 1520C2063.9 1515.8 2052.2 1512.9 2040.6 1509.6C2037.6 1508.7 2034.6 1507.8 2031.6 1506.9C2030.1 1506.2 2028.5 1505.5 2027 1504.9C2066.2 1477.7 2107.1 1453 2145.2 1424.4C2179.9 1398.3 2213.4 1369.8 2238.9 1334.4C2258.9 1306.6 2276.2 1268.6 2256.8 1237.5C2252 1225.1 2243.4 1214.3 2232.4 1206.1C2220.8 1197.5 2207.4 1191.3 2194.5 1184.8C2180.5 1177.8 2166.3 1171.3 2151.6 1165.7C2137.4 1160.3 2122.8 1156.8 2108.2 1152.5C2093.9 1148.3 2080 1143 2066 1137.7C2055.3 1133.7 2044.6 1129.7 2033.7 1126.2C2022.1 1122.5 2010.4 1120 1998.6 1117.1C1995.6 1116.4 1992.6 1115.6 1989.5 1114.8C1986.9 1113.8 1984.2 1112.7 1981.6 1111.6C1972.6 1107.9 1962.7 1103.9 1952.6 1101.8C1991.3 1075.1 2031.5 1050.7 2069.1 1022.5C2103.8 996.4 2137.3 967.9 2162.8 932.5C2182.8 904.7 2200.1 866.7 2180.7 835.6C2175.9 823.2 2167.3 812.4 2156.3 804.2C2144.7 795.6 2131.3 789.4 2118.4 782.9C2104.4 775.9 2090.2 769.4 2075.5 763.8C2061.3 758.4 2046.7 754.9 2032.1 750.6C2017.8 746.4 2003.9 741.1 1989.9 735.8C1979.2 731.8 1968.5 727.8 1957.6 724.3C1946 720.6 1934.3 718.1 1922.5 715.2C1919.5 714.5 1916.5 713.7 1913.4 712.9C1910.8 711.9 1908.1 710.8 1905.5 709.7C1894.8 705.3 1882.9 700.5 1870.9 699C1891 745.6 1906.5 804.9 1918.8 881.1C1935.3 980.9 2048.7 1818.1 2057.2 1880.5Z" />
						<path id="Layer" class="shp3" d="M2251.9 1968.6C2237.9 1962.6 2223.5 1958.5 2209.1 1953.7C2195 1949 2181.3 1943.1 2167.6 1937.3C2157.1 1932.8 2146.5 1928.5 2135.7 1924.5C2124.3 1920.3 2112.6 1917.4 2101 1914.1C2098 1913.2 2095 1912.3 2092 1911.4C2089.4 1910.3 2086.8 1909.1 2084.2 1907.9C2076.5 1904.4 2068 1900.6 2059.4 1898C2071.9 2001.8 2121.2 2451.3 2143.5 2684.8C2182.3 2664.3 2222 2645.5 2259.8 2623.2C2297.2 2601.1 2333.6 2576.4 2362.9 2544C2385.9 2518.5 2407.3 2482.7 2391.3 2449.6C2387.9 2436.7 2380.6 2425.1 2370.5 2415.7C2359.9 2405.9 2347.3 2398.2 2335.2 2390.4C2322.1 2381.9 2308.6 2373.8 2294.7 2366.7C2281.1 2359.7 2267 2354.6 2253 2348.8C2239.3 2343.1 2226 2336.2 2212.7 2329.5C2202.5 2324.3 2192.3 2319.2 2181.8 2314.5C2170.7 2309.5 2159.3 2305.8 2147.9 2301.6C2145 2300.5 2142.1 2299.4 2139.2 2298.3C2136.7 2297 2134.2 2295.7 2131.7 2294.3C2131 2293.9 2130.2 2293.5 2129.5 2293.1C2164.9 2271.2 2201.2 2250.6 2235.5 2226.9C2271.2 2202.2 2305.8 2175 2332.7 2140.6C2353.8 2113.6 2372.6 2076.3 2354.3 2044.5C2350 2031.9 2341.8 2020.8 2331.1 2012.2C2319.8 2003.1 2306.7 1996.4 2294.1 1989.5C2280.3 1981.8 2266.3 1974.8 2251.9 1968.6Z" />
					</g>
					<path id="Layer" class="shp2" d="M1978.8 858.3C1977.2 855.7 1974.4 854 1971.1 854C1966.2 854 1962.1 858.1 1962.1 863C1962.1 864.5 1962.3 865.7 1962.5 867.2C1962.7 869 1963.9 870.7 1965.1 872C1967.4 874.5 1970.9 875 1974.1 875C1979 875 1983.1 870.9 1983.1 866C1983.1 862.8 1981.4 859.9 1978.8 858.3Z" />
					<path id="Layer" class="shp2" d="M1965.1 791C1953.5 791 1953.5 809 1965.1 809C1976.7 809 1976.7 791 1965.1 791Z" />
					<path id="Layer" class="shp2" d="M2112.1 809L2109.1 809C2104.2 809 2100.1 813.1 2100.1 818C2100.1 822.9 2104.2 827 2109.1 827L2112.1 827C2117 827 2121.1 822.9 2121.1 818C2121.1 813.1 2117 809 2112.1 809Z" />
					<path id="Layer" class="shp2" d="M2106.1 899C2094.5 899 2094.5 917 2106.1 917C2117.7 917 2117.7 899 2106.1 899Z" />
					<path id="Layer" class="shp2" d="M2058.1 818C2046.5 818 2046.5 836 2058.1 836C2069.7 836 2069.7 818 2058.1 818Z" />
					<path id="Layer" class="shp2" d="M2013.1 980C2001.5 980 2001.5 998 2013.1 998C2024.7 998 2024.7 980 2013.1 980Z" />
					<path id="Layer" class="shp2" d="M1986.1 941C1974.5 941 1974.5 959 1986.1 959C1997.7 959 1997.7 941 1986.1 941Z" />
					<path id="Layer" class="shp2" d="M2072.2 944.1C2070.4 942.5 2069.9 942.3 2067.6 941.5C2066.5 941.1 2065.2 941 2064.1 941C2059.2 940.9 2055.1 945.2 2055.1 950C2055.1 950.5 2055.2 951 2055.2 951.5C2055.1 952 2055.1 952.5 2055.1 953C2055.1 957.8 2059.2 962.1 2064.1 962C2066.1 962 2068.7 961.5 2070.4 960.3C2072.1 959 2072.9 958.5 2074 956.6C2075 955 2075.3 953.3 2075.4 951.5C2075.5 948.9 2074.2 945.8 2072.2 944.1Z" />
					<path id="Layer" class="shp2" d="M2037.1 881C2025.5 881 2025.5 899 2037.1 899C2048.7 899 2048.7 881 2037.1 881Z" />
					<path id="Layer" class="shp2" d="M1992.5 1180.7C1991.5 1179.7 1990.5 1178.7 1989.5 1177.7C1986 1174.2 1980.2 1174.2 1976.8 1177.7C1973.3 1181.2 1973.3 1187 1976.8 1190.4C1977.8 1191.4 1978.8 1192.4 1979.8 1193.4C1983.3 1196.9 1989.1 1196.9 1992.5 1193.4C1996 1189.9 1996 1184.1 1992.5 1180.7Z" />
					<path id="Layer" class="shp2" d="M2076.1 1400.1C2071.4 1400.1 2067.8 1403.6 2067.2 1408.1C2067.1 1408.3 2067 1408.5 2066.9 1408.6L2066.8 1408.7C2063.4 1412.2 2063.3 1417.9 2066.8 1421.4C2070.3 1424.9 2076.1 1424.9 2079.5 1421.4C2082.8 1418.1 2085 1413.7 2085.1 1409C2085.3 1404.2 2080.9 1400.1 2076.1 1400.1Z" />
					<path id="Layer" class="shp2" d="M2037.1 1328L2031.1 1328C2026.2 1328 2022.1 1332.1 2022.1 1337C2022.1 1341.9 2026.2 1346 2031.1 1346L2037.1 1346C2042 1346 2046.1 1341.9 2046.1 1337C2046.1 1332.1 2042 1328 2037.1 1328Z" />
					<path id="Layer" class="shp2" d="M2154.1 1322C2142.5 1322 2142.5 1340 2154.1 1340C2165.7 1340 2165.7 1322 2154.1 1322Z" />
					<path id="Layer" class="shp2" d="M2097.1 1244L2091.1 1244C2086.2 1244 2082.1 1248.1 2082.1 1253C2082.1 1257.9 2086.2 1262 2091.1 1262L2097.1 1262C2102 1262 2106.1 1257.9 2106.1 1253C2106.1 1248.1 2102 1244 2097.1 1244Z" />
					<path id="Layer" class="shp2" d="M2175.1 1220C2163.5 1220 2163.5 1238 2175.1 1238C2186.7 1238 2186.7 1220 2175.1 1220Z" />
					<path id="Layer" class="shp2" d="M2022.1 1232C2010.5 1232 2010.5 1250 2022.1 1250C2033.7 1250 2033.7 1232 2022.1 1232Z" />
					<path id="Layer" class="shp2" d="M2076.1 1628.1C2064.5 1628.1 2064.5 1646.1 2076.1 1646.1C2087.7 1646.1 2087.7 1628.1 2076.1 1628.1Z" />
					<path id="Layer" class="shp2" d="M2085.5 1561.7C2082.2 1558.4 2077.8 1556.2 2073.1 1556.1C2068.2 1555.9 2064.1 1560.3 2064.1 1565.1C2064.1 1569.8 2067.6 1573.4 2072.1 1574C2072.3 1574.1 2072.5 1574.2 2072.6 1574.3L2072.7 1574.4C2076.2 1577.8 2081.9 1577.9 2085.4 1574.4C2088.9 1571 2089 1565.2 2085.5 1561.7Z" />
					<path id="Layer" class="shp2" d="M2222.3 1609.2C2221.9 1608.3 2221.6 1607.2 2221 1606.4C2219.6 1604.4 2219.4 1604.3 2217.4 1602.8C2215.6 1601.5 2213.2 1601.1 2211.1 1601C2206.2 1600.8 2202.1 1605.2 2202.1 1610C2202.1 1612.7 2203.3 1615 2205.1 1616.7C2205.4 1621.3 2209.4 1625 2214.1 1625C2219 1625 2223.1 1620.9 2223.1 1616C2223.1 1613.8 2223.2 1611.3 2222.3 1609.2Z" />
					<path id="Layer" class="shp2" d="M2214.5 1693.7C2211 1690.2 2205.2 1690.2 2201.8 1693.7C2201.7 1693.8 2201.5 1694 2201.4 1694.1C2196.8 1694.5 2193.2 1698.4 2193.2 1703.1C2193.2 1708 2197.3 1712.1 2202.2 1712.1C2202.8 1712.1 2203.4 1712.1 2204 1712C2206.7 1711.8 2207.2 1711.5 2209.6 1710.5C2211.5 1709.7 2213.1 1707.9 2214.5 1706.4C2218 1703 2218 1697.2 2214.5 1693.7Z" />
					<path id="Layer" class="shp2" d="M2136.1 1625.1L2130.1 1625.1C2125.2 1625.1 2121.1 1629.2 2121.1 1634.1C2121.1 1639 2125.2 1643.1 2130.1 1643.1L2136.1 1643.1C2141 1643.1 2145.1 1639 2145.1 1634.1C2145.1 1629.2 2141 1625.1 2136.1 1625.1Z" />
					<path id="Layer" class="shp2" d="M2091.1 1790.1C2079.5 1790.1 2079.5 1808.1 2091.1 1808.1C2102.7 1808.1 2102.7 1790.1 2091.1 1790.1Z" />
					<path id="Layer" class="shp2" d="M2175.1 1754.1C2163.5 1754.1 2163.5 1772.1 2175.1 1772.1C2186.7 1772.1 2186.7 1754.1 2175.1 1754.1Z" />
					<path id="Layer" class="shp2" d="M2082.1 1700.1C2070.5 1700.1 2070.5 1718.1 2082.1 1718.1C2093.7 1718.1 2093.7 1700.1 2082.1 1700.1Z" />
					<path id="Layer" class="shp2" d="M2154.5 1708.7L2151.5 1705.7C2148 1702.2 2142.2 1702.2 2138.8 1705.7C2135.3 1709.2 2135.3 1715 2138.8 1718.4L2141.8 1721.4C2145.3 1724.9 2151.1 1724.9 2154.5 1721.4C2158 1718 2158 1712.2 2154.5 1708.7Z" />
					<path id="Layer" class="shp2" d="M2103.1 1961.1C2091.5 1961.1 2091.5 1979.1 2103.1 1979.1C2114.7 1979.1 2114.7 1961.1 2103.1 1961.1Z" />
					<path id="Layer" class="shp2" d="M2139.1 2117.1C2127.5 2117.1 2127.5 2135.1 2139.1 2135.1C2150.7 2135.1 2150.7 2117.1 2139.1 2117.1Z" />
					<g id="Layer">
						<path id="Layer" class="shp2" d="M2135.4 2231.2C2134.1 2231.3 2134.7 2231.3 2135.4 2231.2L2135.4 2231.2Z" />
						<path id="Layer" class="shp2" d="M2145.9 2246.1C2147.1 2246 2146.5 2245.9 2145.9 2246.1L2145.9 2246.1Z" />
						<path id="Layer" class="shp2" d="M2145.9 2246.1C2150.5 2245.5 2154.2 2242 2154.2 2237.2C2154.2 2232.5 2150.1 2227.9 2145.2 2228.2C2142.2 2228.4 2139.9 2229.2 2137.2 2230.4C2136.7 2230.6 2136.1 2230.9 2135.6 2231.2L2135.5 2231.2C2135.5 2231.2 2135.5 2231.2 2135.6 2231.2C2135.6 2231.2 2135.6 2231.2 2135.5 2231.2C2130.9 2231.8 2127.2 2235.3 2127.2 2240.1C2127.2 2244.8 2131.3 2249.4 2136.2 2249.1C2139.2 2248.9 2141.5 2248.1 2144.2 2246.9C2144.7 2246.7 2145.3 2246.4 2145.8 2246.1L2145.9 2246.1C2145.9 2246.1 2145.8 2246.1 2145.9 2246.1C2145.8 2246.1 2145.9 2246.1 2145.9 2246.1Z" />
					</g>
					<path id="Layer" class="shp2" d="M2256.2 2150.1C2244.6 2150.1 2244.6 2168.1 2256.2 2168.1C2267.8 2168.1 2267.8 2150.1 2256.2 2150.1Z" />
					<path id="Layer" class="shp2" d="M2199.1 2126.1C2187.5 2126.1 2187.5 2144.1 2199.1 2144.1C2210.7 2144.1 2210.8 2126.1 2199.1 2126.1Z" />
					<path id="Layer" class="shp2" d="M2187.1 2015.1L2184.1 2015.1C2179.2 2015.1 2175.1 2019.2 2175.1 2024.1C2175.1 2029 2179.2 2033.1 2184.1 2033.1L2187.1 2033.1C2192 2033.1 2196.1 2029 2196.1 2024.1C2196.1 2019.2 2192 2015.1 2187.1 2015.1Z" />
					<path id="Layer" class="shp2" d="M2136.1 2033.1C2124.5 2033.1 2124.5 2051.1 2136.1 2051.1C2147.7 2051.1 2147.7 2033.1 2136.1 2033.1Z" />
					<path id="Layer" class="shp2" d="M2247.5 2068.8C2246.5 2067.8 2245.5 2066.8 2244.5 2065.8C2241 2062.3 2235.2 2062.3 2231.8 2065.8C2228.3 2069.3 2228.3 2075.1 2231.8 2078.5C2232.8 2079.5 2233.8 2080.5 2234.8 2081.5C2238.3 2085 2244.1 2085 2247.5 2081.5C2251 2078 2251 2072.2 2247.5 2068.8Z" />
					<path id="Layer" class="shp2" d="M2310.2 2069.1C2298.6 2069.1 2298.6 2087.1 2310.2 2087.1C2321.8 2087.1 2321.8 2069.1 2310.2 2069.1Z" />
					<path id="Layer" class="shp2" d="M2268.2 2000.1C2256.6 2000.1 2256.6 2018.1 2268.2 2018.1C2279.8 2018.1 2279.8 2000.1 2268.2 2000.1Z" />
					<path id="Layer" class="shp2" d="M2193.1 1967.1C2181.5 1967.1 2181.5 1985.1 2193.1 1985.1C2204.7 1985.1 2204.8 1967.1 2193.1 1967.1Z" />
					<path id="Layer" class="shp2" d="M2175.1 2354.2C2163.5 2354.2 2163.5 2372.2 2175.1 2372.2C2186.7 2372.2 2186.7 2354.2 2175.1 2354.2Z" />
					<path id="Layer" class="shp2" d="M2283.2 2411.2C2271.6 2411.2 2271.6 2429.2 2283.2 2429.2C2294.8 2429.2 2294.8 2411.2 2283.2 2411.2Z" />
					<path id="Layer" class="shp2" d="M2316.2 2447.2C2304.6 2447.2 2304.6 2465.2 2316.2 2465.2C2327.8 2465.2 2327.8 2447.2 2316.2 2447.2Z" />
					<path id="Layer" class="shp2" d="M2253.1 2525.2L2250.1 2525.2C2245.2 2525.2 2241.1 2529.3 2241.1 2534.2C2241.1 2539.1 2245.2 2543.2 2250.1 2543.2L2253.1 2543.2C2258 2543.2 2262.1 2539.1 2262.1 2534.2C2262.1 2529.3 2258.1 2525.2 2253.1 2525.2Z" />
					<path id="Layer" class="shp2" d="M2172.1 2423.2C2160.5 2423.2 2160.5 2441.2 2172.1 2441.2C2183.7 2441.2 2183.7 2423.2 2172.1 2423.2Z" />
					<path id="Layer" class="shp2" d="M2238.1 2441.2C2226.5 2441.2 2226.5 2459.2 2238.1 2459.2C2249.7 2459.2 2249.8 2441.2 2238.1 2441.2Z" />
					<path id="Layer" class="shp2" d="M2181.1 2510.2C2169.5 2510.2 2169.5 2528.2 2181.1 2528.2C2192.7 2528.2 2192.8 2510.2 2181.1 2510.2Z" />
					<path id="Layer" class="shp2" d="M2190.1 2582.2C2185.2 2582.2 2181.1 2586.3 2181.1 2591.2L2181.1 2594.2C2181.1 2599.1 2185.2 2603.2 2190.1 2603.2C2195 2603.2 2199.1 2599.1 2199.1 2594.2L2199.1 2591.2C2199.1 2586.3 2195 2582.2 2190.1 2582.2Z" />
					<path id="Layer" class="shp2" d="M2325.2 2501.2C2313.6 2501.2 2313.6 2519.2 2325.2 2519.2C2336.8 2519.2 2336.8 2501.2 2325.2 2501.2Z" />
					<path id="Layer" class="shp2" d="M2187.1 2738.2C2175.5 2738.2 2175.5 2756.2 2187.1 2756.2C2198.7 2756.2 2198.8 2738.2 2187.1 2738.2Z" />
					<path id="Layer" class="shp2" d="M2250.1 2759.2C2238.5 2759.2 2238.5 2777.2 2250.1 2777.2C2261.7 2777.2 2261.8 2759.2 2250.1 2759.2Z" />
				</g>
				<path id="椭圆形" class="shp4" d="M1619.6 1144C1551.3 1144 1496.1 1089.24 1496.1 1021.5C1496.1 953.76 1551.3 899 1619.6 899C1687.9 899 1743.1 953.76 1743.1 1021.5C1743.1 1089.24 1687.9 1144 1619.6 1144Z" />
				<path id="椭圆形" class="shp5" d="M1156.2 2396.1C1135.68 2396.1 1119.1 2377.42 1119.1 2354.3C1119.1 2331.18 1135.68 2312.5 1156.2 2312.5C1176.72 2312.5 1193.3 2331.18 1193.3 2354.3C1193.3 2377.42 1176.72 2396.1 1156.2 2396.1Z" />
				<path id="椭圆形" class="shp5" d="M1104.4 2519C1091.96 2519 1081.9 2507.69 1081.9 2493.7C1081.9 2479.71 1091.96 2468.4 1104.4 2468.4C1116.84 2468.4 1126.9 2479.71 1126.9 2493.7C1126.9 2507.69 1116.84 2519 1104.4 2519Z" />
				<path id="椭圆形" class="shp5" d="M1247.3 2562.5C1215.78 2562.5 1190.3 2533.8 1190.3 2498.3C1190.3 2462.8 1215.78 2434.1 1247.3 2434.1C1278.82 2434.1 1304.3 2462.8 1304.3 2498.3C1304.3 2533.8 1278.82 2562.5 1247.3 2562.5Z" />
				<path id="椭圆形" class="shp5" d="M1153.4 2651.3C1132.88 2651.3 1116.3 2632.62 1116.3 2609.5C1116.3 2586.38 1132.88 2567.7 1153.4 2567.7C1173.92 2567.7 1190.5 2586.38 1190.5 2609.5C1190.5 2632.62 1173.92 2651.3 1153.4 2651.3Z" />
				<path id="椭圆形" class="shp5" d="M1073 2740.8C1060.56 2740.8 1050.5 2729.49 1050.5 2715.5C1050.5 2701.51 1060.56 2690.2 1073 2690.2C1085.44 2690.2 1095.5 2701.51 1095.5 2715.5C1095.5 2729.49 1085.44 2740.8 1073 2740.8Z" />
				<path id="椭圆形" class="shp5" d="M1283.3 2779.7C1251.78 2779.7 1226.3 2751 1226.3 2715.5C1226.3 2680 1251.78 2651.3 1283.3 2651.3C1314.82 2651.3 1340.3 2680 1340.3 2715.5C1340.3 2751 1314.82 2779.7 1283.3 2779.7Z" />
				<path id="椭圆形" class="shp5" d="M1301.1 1595.6C1280.58 1595.6 1264 1576.92 1264 1553.8C1264 1530.68 1280.58 1512 1301.1 1512C1321.62 1512 1338.2 1530.68 1338.2 1553.8C1338.2 1576.92 1321.62 1595.6 1301.1 1595.6Z" />
				<path id="椭圆形" class="shp5" d="M1249.3 1718.4C1236.86 1718.4 1226.8 1707.09 1226.8 1693.1C1226.8 1679.11 1236.86 1667.8 1249.3 1667.8C1261.74 1667.8 1271.8 1679.11 1271.8 1693.1C1271.8 1707.09 1261.74 1718.4 1249.3 1718.4Z" />
				<path id="椭圆形" class="shp5" d="M1392.2 1762C1360.68 1762 1335.2 1733.3 1335.2 1697.8C1335.2 1662.3 1360.68 1633.6 1392.2 1633.6C1423.72 1633.6 1449.2 1662.3 1449.2 1697.8C1449.2 1733.3 1423.72 1762 1392.2 1762Z" />
				<path id="椭圆形" class="shp5" d="M1298.3 1850.7C1277.78 1850.7 1261.2 1832.02 1261.2 1808.9C1261.2 1785.78 1277.78 1767.1 1298.3 1767.1C1318.82 1767.1 1335.4 1785.78 1335.4 1808.9C1335.4 1832.02 1318.82 1850.7 1298.3 1850.7Z" />
				<path id="椭圆形" class="shp5" d="M1278.8 2337.8C1266.36 2337.8 1256.3 2326.49 1256.3 2312.5C1256.3 2298.51 1266.36 2287.2 1278.8 2287.2C1291.24 2287.2 1301.3 2298.51 1301.3 2312.5C1301.3 2326.49 1291.24 2337.8 1278.8 2337.8Z" />
				<path id="椭圆形" class="shp5" d="M1173.2 2257.6C1141.68 2257.6 1116.2 2228.9 1116.2 2193.4C1116.2 2157.9 1141.68 2129.2 1173.2 2129.2C1204.72 2129.2 1230.2 2157.9 1230.2 2193.4C1230.2 2228.9 1204.72 2257.6 1173.2 2257.6Z" />
			</g>
		</g>
		<g id="编组">
			<g id="龙角">
				<path id="路径" fill-rule="evenodd" class="shp6" d="M576.83 786.13C581.62 783.99 586.42 781.86 590.68 779.19C594.94 776.52 600.8 775.98 604 771.71C614.12 769.58 621.58 763.17 628.51 756.23C630.64 754.09 633.84 751.96 637.03 749.82C653.02 738.61 658.88 720.99 664.74 703.91C665.8 700.7 667.4 697.5 669 694.3C662.61 682.55 650.89 675.61 642.89 666C640.76 666 640.23 667.6 639.7 669.2C636.5 678.28 633.84 687.36 627.98 694.83C627.44 695.9 626.91 696.97 626.38 698.03C620.52 704.44 614.66 710.85 608.8 717.25C604.53 721.53 600.8 726.33 594.94 727.4C591.21 733.27 584.29 735.41 578.96 739.14C577.89 740.21 576.3 741.28 575.23 741.81C568.84 743.95 562.98 747.69 557.11 750.36C552.85 752.49 548.06 753.03 543.8 754.09C541.66 754.63 540.07 755.16 539 757.83C547.52 767.97 551.25 781.86 562.44 792C566.17 790.93 571.5 788.26 576.83 786.13Z" />
				<path id="路径" fill-rule="evenodd" class="shp6" d="M570 804.52C574.27 809.87 578 814.68 582.81 818.95C589.21 824.83 597.21 826.97 605.22 828.57C626.56 832.84 645.77 827.5 662.31 813.07C672.98 803.99 682.05 793.84 688.45 781.55C692.19 774.6 695.92 767.65 696.46 759.64C696.46 755.9 697.52 751.62 698.59 747.88C699.66 741.47 698.59 735.06 695.92 729.18C692.72 722.24 688.99 715.82 684.72 709.41C683.12 707.27 680.98 705.67 678.32 703C676.71 707.27 675.65 710.48 674.58 713.69C672.45 720.1 670.31 726.51 666.58 731.85C666.04 732.39 665.51 732.92 665.51 733.99C661.77 743.08 654.84 749.49 647.9 755.9C643.63 760.17 639.36 763.91 635.1 767.65C630.29 771.93 624.96 776.74 618.56 778.88C613.22 780.48 608.95 784.22 604.15 786.36C595.08 790.63 587.07 795.97 578 799.71C574.27 801.85 572.67 802.92 570 804.52Z" />
				<path id="路径" fill-rule="evenodd" class="shp6" d="M566.26 730.86C575.81 725.02 585.37 718.66 594.92 712.29C595.98 711.23 597.57 710.7 598.63 709.64C607.12 699.56 616.14 690.54 621.98 678.87C624.63 673.56 626.22 668.26 627.82 662.42C628.35 660.3 629.94 658.18 631 655.53C626.75 651.28 622.51 647.04 618.26 642.79C613.49 638.55 610.84 632.71 604.47 629C601.28 634.31 598.63 639.61 595.98 644.38C591.73 652.34 587.49 660.3 579 664.54C572.1 673.56 560.96 676.75 552.47 684.17C551.4 684.7 550.34 685.23 549.28 685.23C546.63 685.23 545.04 686.3 542.91 688.42C539.2 692.13 534.96 694.78 529.65 695.31C523.81 695.85 520.63 701.15 514.79 702.21C513.2 702.21 512.67 704.86 513.2 705.92C519.57 716.54 522.75 729.27 528.59 739.88C528.59 740.41 529.12 740.41 530.18 742C543.98 740.94 555.65 737.23 566.26 730.86Z" />
				<path id="路径" fill-rule="evenodd" class="shp6" d="M493.3 661.58C497.07 670.72 501.37 679.86 505.67 689C513.2 688.46 519.65 685.77 526.1 682.55C539.01 675.56 552.45 669.65 564.28 659.97C567.5 657.28 570.73 655.67 573.95 652.98C581.48 646.53 585.78 638.46 590.09 629.86C592.24 626.1 593.85 622.33 596 618.03C587.93 607.28 573.42 593.84 565.35 589C562.66 593.3 560.51 598.14 557.82 602.44C554.06 610.51 547.61 616.42 540.62 621.8C534.7 626.63 528.25 632.01 521.8 636.31C512.66 642.23 502.44 644.91 492.23 648.14C491.15 648.68 490.08 649.22 489 649.75C490.61 654.05 491.69 657.82 493.3 661.58Z" />
				<path id="路径" fill-rule="evenodd" class="shp6" d="M471.35 602.94C475.61 614.08 479.87 624.69 484.13 635.84C493.18 636.9 501.16 632.65 508.62 628.41C520.33 622.04 530.98 614.08 540.56 604.53C547.48 597.1 553.34 588.61 556 578.53C545.88 566.86 534.7 556.78 527.25 552C526.19 553.06 525.12 554.65 524.59 555.71C519.26 569.51 509.68 579.59 497.44 587.02C495.31 588.08 493.18 589.14 491.58 590.73C486.79 593.92 482.53 597.1 476.67 596.57C476.14 596.57 475.08 597.1 474.54 597.1C472.95 597.63 471.35 600.28 471.88 601.88C470.82 601.88 470.82 602.41 471.35 602.94Z" />
				<path id="路径" fill-rule="evenodd" class="shp6" d="M455.52 563.87C459.2 571.84 461.83 579.81 464.99 587.25C466.56 587.78 467.09 588.31 467.61 587.78C472.87 585.12 477.61 581.94 482.87 579.81C493.91 575.03 502.33 567.06 509.16 557.5C512.32 553.25 513.9 547.41 516 542.09C507.06 533.06 499.17 522.97 488.13 515C484.44 517.66 481.81 520.84 479.19 524.56C474.45 532.53 467.61 535.72 458.67 536.25C453.94 536.78 449.21 536.25 445 539.97C447.63 548.47 451.84 555.91 455.52 563.87Z" />
				<path id="路径" fill-rule="evenodd" class="shp6" d="M415.22 455.97C416.31 462.41 417.93 468.31 419.55 474.21C424.97 490.3 430.38 506.4 436.33 522.49C437.41 525.17 439.04 527.32 440.66 530C445.53 526.25 450.94 524.1 456.89 524.64C459.6 524.64 462.31 523.03 464.47 521.42C470.42 517.66 474.75 512.3 478 505.86C474.21 499.42 467.72 495.13 462.31 490.3C457.98 486.01 453.65 482.26 449.32 477.97C439.04 468.31 427.67 458.66 417.39 449.54C416.85 449.54 416.85 449.54 415.77 449C415.22 451.68 414.68 453.83 415.22 455.97Z" />
			</g>
		</g>
	</g>
</svg>